PathFileType	4	(X/Y/Z)	CPRIT_Patient3_R_AnkleIso_Processed.TRC
DataRate	CameraRate	NumFrames	NumMarkers	Units	OrigDataRate	OrigDataStartFrame	OrigNumFrames
150.227617602428	150.227617602428	6	39	m	150.227617602428	496	       661
Frame#	Time	R.Heel			R.Midfoot.Superior			R.Midfoot.Lateral			R.Toe			L.Heel			L.Midfoot.Superior			L.Midfoot.Lateral			L.Toe			R.Shank.Superior			R.Shank.Inferior			R.Shank.Lateral			R.Shank.Posterior			L.Shank.Superior			L.Shank.Inferior			L.Shank.Posterior			L.Shank.Lateral			R.Patella			L.Patella			R.Thigh.Superior			R.Thigh.Lateral			R.Thigh.Inferior			L.Thigh.Superior			L.Thigh.Inferior			L.Thigh.Lateral			L.Asis			R.Asis			Sacral			R.Shoulder			L.Shoulder			C7			J.Notch			Sternum			Thoracic			L.Elbow			L.Wrist			R.Elbow			R.Wrist			R.PSIS			L.PSIS			
		X1	Y1	Z1	X2	Y2	Z2	X3	Y3	Z3	X4	Y4	Z4	X5	Y5	Z5	X6	Y6	Z6	X7	Y7	Z7	X8	Y8	Z8	X9	Y9	Z9	X10	Y10	Z10	X11	Y11	Z11	X12	Y12	Z12	X13	Y13	Z13	X14	Y14	Z14	X15	Y15	Z15	X16	Y16	Z16	X17	Y17	Z17	X18	Y18	Z18	X19	Y19	Z19	X20	Y20	Z20	X21	Y21	Z21	X22	Y22	Z22	X23	Y23	Z23	X24	Y24	Z24	X25	Y25	Z25	X26	Y26	Z26	X27	Y27	Z27	X28	Y28	Z28	X29	Y29	Z29	X30	Y30	Z30	X31	Y31	Z31	X32	Y32	Z32	X33	Y33	Z33	X34	Y34	Z34	X35	Y35	Z35	X36	Y36	Z36	X37	Y37	Z37	X38	Y38	Z38	X39	Y39	Z39	

496	3.295000000000	0.963497601800	0.143934592997	0.181500952049	1.142022188128	0.147043317735	0.160340660712	1.044687030057	0.108718123225	0.218094366566	1.237733311979	0.068157953378	0.138032904403	0.643945456141	0.042760460589	-0.093819671007	0.806577247792	0.095579617010	-0.144559851557	0.709482393209	0.032696226654	-0.166018857986	0.920235822252	0.056580513819	-0.173602046685	0.999739928447	0.437907476203	0.144049437722	1.036043013941	0.323223934928	0.164777982191	0.953261191937	0.361561932320	0.211195701873	0.869539056492	0.384545754808	0.152897426439	0.769057832339	0.363577384791	-0.167638982414	0.757199928902	0.236202741410	-0.151679464820	0.630989414572	0.344310100159	-0.150220656787	0.694563171146	0.278033565811	-0.204603704254	0.975599868833	0.555684978641	0.103380722191	0.798626079184	0.465724175962	-0.166297463947	0.879567463182	0.842403182392	0.086003784917	0.833813468852	0.759594092355	0.144913444184	0.936250954594	0.699056743059	0.068075949958	0.857809096236	0.775172961939	-0.184718036550	0.839584554540	0.610821452891	-0.170938716763	0.756394435247	0.703739498753	-0.241181614276	0.852661553944	0.935971987050	-0.178477021108	0.817005976621	0.954104566035	0.062613244262	0.646781444684	0.987393542935	-0.075408295130	0.775053204575	1.438690722951	0.090036170751	0.818430931884	1.456929578080	-0.218452801417	0.755002412683	1.478729986054	-0.065083623101	0.855309030858	1.362736945191	-0.058649715178	0.893259852869	1.183680823857	-0.066270326125	0.647819151173	1.329600977659	-0.085242769942	0.851219434718	1.174180792005	-0.385342021479	1.008862639391	0.988388142423	-0.444960554774	0.770362915786	1.166168409354	0.274587887412	0.906720715902	0.991643405249	0.404930841630	0.643091936310	0.988878028649	-0.038497779000	0.650781661775	0.987775159860	-0.112691653753	
497	3.301656565657	0.963294115391	0.143994490150	0.181454532808	1.141925481810	0.147060311612	0.161090875226	1.044333930983	0.108865955393	0.218453986191	1.237716799817	0.068142089158	0.139432251321	0.643945349368	0.042761087448	-0.093820363514	0.806578390129	0.095580138103	-0.144554505841	0.709483152043	0.032696498698	-0.166019123712	0.920236134288	0.056578536462	-0.173601029528	0.999596808446	0.437926559356	0.144286313539	1.035874907877	0.323250424938	0.165056813808	0.953041792436	0.361593976261	0.211376606030	0.869421665564	0.384579687275	0.152950505770	0.769090703603	0.363567574951	-0.167651821161	0.757223269517	0.236199160212	-0.151683309379	0.631026161676	0.344317098156	-0.150256651375	0.694601465679	0.278030976497	-0.204622971953	0.975507490195	0.555713624228	0.103591194186	0.798663739917	0.465720379413	-0.166299687873	0.879477777519	0.842419064259	0.086074311026	0.833671397522	0.759616359364	0.144944286928	0.936178420721	0.699075045901	0.068212957141	0.857887041009	0.775168877176	-0.184672115488	0.839667686094	0.610818823800	-0.170870500416	0.756565509901	0.703750001835	-0.241222381857	0.852711752967	0.935968644085	-0.178480046431	0.816966718795	0.954128106451	0.062602586639	0.646720542284	0.987406838043	-0.075503855556	0.775067766183	1.438684025957	0.090010861037	0.818531091307	1.456965050859	-0.218468267144	0.755048420593	1.478745354931	-0.065126105839	0.855356331780	1.362758461972	-0.058657020245	0.893313776331	1.183703493847	-0.066276320854	0.647853299111	1.329640699147	-0.085363841515	0.851272673493	1.174217197371	-0.385383656568	1.008874416692	0.988388076631	-0.444969748589	0.770381559542	1.166158563319	0.274551632033	0.906722563116	0.991642600115	0.404924247537	0.642969300983	0.988893457373	-0.038592163682	0.650816440542	0.987777797095	-0.112807001007	
498	3.308313131313	0.963103834092	0.144057804959	0.181399027216	1.141841785521	0.147083198214	0.161860046817	1.043986747100	0.109027656811	0.218825544926	1.237720548606	0.068131474798	0.140885764065	0.643945288375	0.042761738825	-0.093820967300	0.806579614192	0.095580454470	-0.144549270860	0.709483936543	0.032696724945	-0.166019400255	0.920236582610	0.056576445046	-0.173599983695	0.999448241467	0.437945465529	0.144531638286	1.035708319861	0.323277570027	0.165342659246	0.952816996634	0.361617547885	0.211546496035	0.869297672924	0.384601487238	0.152992775925	0.769125098650	0.363557124486	-0.167666005527	0.757247758125	0.236195198109	-0.151687543916	0.631064554807	0.344324123960	-0.150293907238	0.694641214995	0.278027934477	-0.204643198713	0.975408925645	0.555740802118	0.103810593813	0.798708356763	0.465718555645	-0.166309769173	0.879384679205	0.842433072776	0.086145766192	0.833523767957	0.759637234477	0.144975310659	0.936102821495	0.699091558770	0.068354764252	0.857967635109	0.775165822679	-0.184628105863	0.839757186965	0.610816705795	-0.170805667276	0.756742040133	0.703762032586	-0.241265243823	0.852760910496	0.935966159380	-0.178483603874	0.816925655214	0.954149547043	0.062592034915	0.646651955832	0.987416804932	-0.075598138075	0.775082641976	1.438676364468	0.089985056789	0.818634630415	1.457000672338	-0.218481680868	0.755095489709	1.478759612180	-0.065168797706	0.855403432114	1.362776742646	-0.058663405179	0.893364491903	1.183722491290	-0.066281554171	0.647885814924	1.329681585891	-0.085487144879	0.851328361382	1.174255771520	-0.385427099522	1.008886384786	0.988387855836	-0.444979851262	0.770398722491	1.166147919484	0.274515024304	0.906724086961	0.991641741002	0.404917381013	0.642834304023	0.988904722562	-0.038684201193	0.650849073397	0.987778075423	-0.112923373965	
499	3.314969696970	0.962926317351	0.144123828579	0.181335810740	1.141769832498	0.147111862539	0.162648269756	1.043644865776	0.109202856491	0.219210221829	1.237743127584	0.068125848154	0.142393903500	0.643945272939	0.042762400517	-0.093821485977	0.806580876109	0.095580558172	-0.144544274829	0.709484728855	0.032696884869	-0.166019696553	0.920237166968	0.056574298786	-0.173598923754	0.999293950765	0.437963985567	0.144786122508	1.035542815420	0.323304853426	0.165636450887	0.952586021903	0.361632550146	0.211706111955	0.869166401613	0.384610955760	0.153024783298	0.769160357702	0.363546091308	-0.167681890492	0.757272926663	0.236190905817	-0.151692367212	0.631103870710	0.344331006235	-0.150332452935	0.694681734131	0.278024353980	-0.204664537817	0.975304299154	0.555765990564	0.104038973794	0.798760336205	0.465719110497	-0.166329542347	0.879289183866	0.842444959204	0.086216755544	0.833371854914	0.759657093009	0.145006378835	0.936024632992	0.699105912267	0.068500885987	0.858050151022	0.775163743517	-0.184588338952	0.839852337880	0.610814970827	-0.170747393887	0.756920871094	0.703775001632	-0.241310421743	0.852808887268	0.935964441517	-0.178488491741	0.816883596906	0.954168258629	0.062580873839	0.646577045835	0.987423385215	-0.075690943656	0.775097216892	1.438667714169	0.089959073858	0.818740365872	1.457036196462	-0.218493021839	0.755143061586	1.478772584583	-0.065211181175	0.855449968570	1.362791826911	-0.058668872645	0.893412198117	1.183738107141	-0.066286232922	0.647916572947	1.329722871391	-0.085611414158	0.851385826667	1.174296042986	-0.385471821528	1.008898358098	0.988387441451	-0.444990717773	0.770414014450	1.166136377088	0.274478334874	0.906725241072	0.991640844743	0.404910399793	0.642688991693	0.988911762396	-0.038773605005	0.650879867024	0.987776165809	-0.113040386610	
500	3.321626262626	0.962761286822	0.144191533817	0.181266260007	1.141708488464	0.147146571581	0.163455497185	1.043308003301	0.109390952828	0.219608957204	1.237783420369	0.068125802537	0.143956514986	0.643945301381	0.042763059145	-0.093821926105	0.806582121401	0.095580444282	-0.144539654963	0.709485511135	0.032696958759	-0.166020022774	0.920237883599	0.056572162188	-0.173597862495	0.999133624565	0.437982011931	0.145050503400	1.035377924848	0.323331860386	0.165939108311	0.952348064249	0.361638975921	0.211856354659	0.869027238416	0.384607978861	0.153047095590	0.769195767956	0.363534550154	-0.167699802121	0.757298266896	0.236186350805	-0.151697969392	0.631143322227	0.344337568595	-0.150372319521	0.694722302182	0.278020159260	-0.204687134675	0.975193641116	0.555788735936	0.104276421152	0.798820037055	0.465722483966	-0.166360813614	0.879192173627	0.842454445507	0.086286208917	0.833216629188	0.759676213477	0.145037430226	0.935944214891	0.699117754296	0.068651077405	0.858133767736	0.775162546505	-0.184555242143	0.839952234538	0.610813454049	-0.170699052418	0.757098447747	0.703788202065	-0.241358072966	0.852855595859	0.935963358696	-0.178495442732	0.816841323518	0.954183646199	0.062568408437	0.646497362216	0.987426569654	-0.075782204844	0.775110898110	1.438658067275	0.089933226497	0.818847098145	1.457071396957	-0.218502306388	0.755190592170	1.478784131763	-0.065252738902	0.855495612219	1.362803822066	-0.058673443878	0.893457157444	1.183750701992	-0.066290587370	0.647945515512	1.329763790439	-0.085735369838	0.851444347732	1.174337492471	-0.385517253181	1.008910145062	0.988386811925	-0.445002185201	0.770427079432	1.166123855190	0.274441843235	0.906725980874	0.991639931879	0.404903478200	0.642535727937	0.988914583300	-0.038860253060	0.650909170602	0.987772295819	-0.113157714283	
501	3.328282828283	0.962608624036	0.144259634546	0.181191747220	1.141656770533	0.147187940323	0.164281503322	1.042976205305	0.109591152552	0.220022437961	1.237840624021	0.068132713874	0.145572758019	0.643945370323	0.042763703904	-0.093822298690	0.806583286296	0.095580113846	-0.144535555739	0.709486266118	0.032696928785	-0.166020389875	0.920238724890	0.056570101190	-0.173596811703	0.998966946349	0.437999548432	0.145325488814	1.035213173343	0.323358296838	0.166251482810	0.952102356721	0.361636929758	0.211998253598	0.868879671812	0.384592557605	0.153060302693	0.769230590504	0.363522593007	-0.167720027902	0.757323249793	0.236181615178	-0.151704526968	0.631182089704	0.344343638798	-0.150413539340	0.694762189563	0.278015288085	-0.204711119081	0.975076903007	0.555808676750	0.104523024595	0.798887762841	0.465729141712	-0.166405298414	0.879094367116	0.842461259022	0.086353410181	0.833058744336	0.759694786257	0.145068470436	0.935861812018	0.699126782684	0.068805317211	0.858217603566	0.775162099311	-0.184531247316	0.840055821171	0.610811955168	-0.170664092607	0.757270938532	0.703800832536	-0.241408277709	0.852901010727	0.935962738981	-0.178505083851	0.816799545247	0.954195175898	0.062553995514	0.646414572466	0.987426392645	-0.075871985812	0.775123133743	1.438647431292	0.089907812389	0.818953648963	1.457106078027	-0.218509586362	0.755237564687	1.478794149896	-0.065292961887	0.855540077674	1.362812897524	-0.058677153546	0.893499682393	1.183760691863	-0.066294865599	0.647972645055	1.329803610887	-0.085857778832	0.851503175974	1.174379572301	-0.385562802935	1.008921555014	0.988385965484	-0.445014078628	0.770437610041	1.166110297737	0.274405825058	0.906726265130	0.991639028860	0.404896799914	0.642377089897	0.988913249528	-0.038944191399	0.650937361558	0.987766740740	-0.113275107200	
